<svg version="1.1" id="Layer_1" xmlns="http://www.w3.org/2000/svg" xmlns:xlink="http://www.w3.org/1999/xlink" x="0px" y="0px"
	 width="100%" viewBox="0 0 79 75" enable-background="new 0 0 79 75" xml:space="preserve">
<path fill="#FFFEFA" opacity="1.000000" stroke="none" 
	d="
M25.000000,76.000000 
	C17.072142,76.000000 9.144283,76.000000 1.000000,76.000000 
	C1.000000,67.980415 1.000000,59.958885 1.314040,51.604645 
	C3.870904,55.009697 6.113728,58.747463 8.356552,62.485229 
	C9.208057,56.993179 9.856474,51.760265 9.066795,46.754196 
	C7.628914,37.638931 11.093864,32.251373 19.405794,28.680408 
	C25.209496,26.187029 30.468805,22.426508 35.938198,19.251181 
	C31.175398,13.963593 26.834600,14.205667 21.586559,17.799074 
	C15.018828,22.296091 7.887846,25.970499 1.000000,30.000000 
	C1.000000,20.353514 1.000000,10.707026 1.000000,1.030269 
	C27.258152,1.030269 53.516346,1.030269 79.887268,1.030269 
	C79.887268,25.999725 79.887268,50.999779 79.885162,75.999916 
	C71.234482,76.000000 62.585903,76.000000 53.626423,75.698502 
	C56.315559,73.637794 59.220123,71.683243 62.335766,70.160599 
	C68.572716,67.112556 69.943321,60.876301 72.634438,55.311691 
	C66.066788,58.334660 59.958790,61.834373 53.872879,65.372070 
	C48.856133,68.288269 44.931046,67.272385 41.335121,61.943153 
	C46.761101,65.864624 51.513382,65.366486 56.395073,61.373306 
	C58.679005,59.505066 61.372406,57.913990 64.137642,56.897713 
	C74.116737,53.230194 77.239868,46.544106 76.403961,35.933086 
	C75.807747,28.364798 71.969917,23.302670 68.398483,17.541756 
	C67.884735,24.936455 67.664429,32.205601 67.972572,39.452274 
	C68.140465,43.400810 67.038940,45.878708 63.430435,47.790985 
	C56.979229,51.209732 50.750320,55.055058 44.500309,58.840645 
	C43.178608,59.641190 42.165695,60.951538 40.661743,62.209713 
	C34.380482,59.236073 28.447979,56.079708 22.325966,52.822514 
	C21.443583,61.467999 21.477999,61.411232 28.248859,65.516212 
	C33.881054,68.930840 39.419842,72.499542 45.000000,76.000000 
	C44.250000,76.000000 43.500000,76.000000 42.176182,75.725082 
	C37.711544,73.210449 34.034454,70.397171 29.885195,68.850983 
	C21.374836,65.679657 18.717413,59.988190 19.766691,51.245598 
	C20.519957,44.969376 19.913256,38.529930 19.913256,31.859467 
	C11.251954,35.177200 11.251843,35.177200 11.251751,43.049324 
	C11.251669,50.041157 11.032139,57.044487 11.397140,64.017220 
	C11.495819,65.902321 12.957844,68.220345 14.506437,69.420525 
	C17.753618,71.937126 21.473946,73.843231 25.000000,76.000000 
M44.232086,2.109872 
	C40.733173,2.109872 37.234257,2.109872 33.735344,2.109872 
	C38.358341,5.881227 42.851948,9.180702 47.862015,11.196695 
	C55.640961,14.326852 58.270298,19.410051 57.322838,27.617804 
	C56.560650,34.220558 57.168579,40.981472 57.168579,47.974533 
	C65.855164,44.530380 65.855309,44.530380 65.855232,36.375782 
	C65.855171,29.567104 65.902946,22.757801 65.815018,15.950255 
	C65.796753,14.536524 65.723740,12.282582 64.913765,11.853004 
	C58.422817,8.410460 51.748768,5.313159 44.232086,2.109872 
M54.824890,26.484938 
	C56.226704,20.642267 54.920761,16.400837 48.782505,13.849977 
	C44.212883,11.950990 39.785725,9.379750 35.839382,6.389599 
	C30.280888,2.177920 25.854349,3.038923 19.862045,6.272582 
	C11.799539,10.623396 6.973775,16.780451 3.170460,25.957344 
	C10.622608,21.707506 17.173109,18.170143 23.504967,14.277160 
	C26.665104,12.334229 29.166748,12.013538 32.509109,14.136815 
	C39.520630,18.590975 46.858807,22.530931 54.824890,26.484938 
z"/>
<path fill="#FFD043" opacity="1.000000" stroke="none" 
	d="
M25.467606,76.000000 
	C21.473946,73.843231 17.753618,71.937126 14.506437,69.420525 
	C12.957844,68.220345 11.495819,65.902321 11.397140,64.017220 
	C11.032139,57.044487 11.251669,50.041157 11.251751,43.049324 
	C11.251843,35.177200 11.251954,35.177200 19.913256,31.859467 
	C19.913256,38.529930 20.519957,44.969376 19.766691,51.245598 
	C18.717413,59.988190 21.374836,65.679657 29.885195,68.850983 
	C34.034454,70.397171 37.711544,73.210449 41.801182,75.725082 
	C36.645069,76.000000 31.290140,76.000000 25.467606,76.000000 
z"/>
<path fill="#FFCE3D" opacity="1.000000" stroke="none" 
	d="
M40.958374,61.969669 
	C44.931046,67.272385 48.856133,68.288269 53.872879,65.372070 
	C59.958790,61.834373 66.066788,58.334660 72.634438,55.311691 
	C69.943321,60.876301 68.572716,67.112556 62.335766,70.160599 
	C59.220123,71.683243 56.315559,73.637794 53.157761,75.698502 
	C50.629444,76.000000 48.258884,76.000000 45.444168,76.000000 
	C39.419842,72.499542 33.881054,68.930840 28.248859,65.516212 
	C21.477999,61.411232 21.443583,61.467999 22.325966,52.822514 
	C28.447979,56.079708 34.380482,59.236073 40.649666,62.194778 
	C40.986347,61.997116 40.958374,61.969669 40.958374,61.969669 
z"/>
<path fill="#FFCE3D" opacity="1.000000" stroke="none" 
	d="
M1.000000,30.468533 
	C7.887846,25.970499 15.018828,22.296091 21.586559,17.799074 
	C26.834600,14.205667 31.175398,13.963593 35.938198,19.251181 
	C30.468805,22.426508 25.209496,26.187029 19.405794,28.680408 
	C11.093864,32.251373 7.628914,37.638931 9.066795,46.754196 
	C9.856474,51.760265 9.208057,56.993179 8.356552,62.485229 
	C6.113728,58.747463 3.870904,55.009697 1.314040,51.135963 
	C1.000000,44.312355 1.000000,37.624710 1.000000,30.468533 
z"/>
<path fill="#FFD044" opacity="1.000000" stroke="none" 
	d="
M44.681419,2.110036 
	C51.748768,5.313159 58.422817,8.410460 64.913765,11.853004 
	C65.723740,12.282582 65.796753,14.536524 65.815018,15.950255 
	C65.902946,22.757801 65.855171,29.567104 65.855232,36.375782 
	C65.855309,44.530380 65.855164,44.530380 57.168579,47.974533 
	C57.168579,40.981472 56.560650,34.220558 57.322838,27.617804 
	C58.270298,19.410051 55.640961,14.326852 47.862015,11.196695 
	C42.851948,9.180702 38.358341,5.881227 33.735344,2.109872 
	C37.234257,2.109872 40.733173,2.109872 44.681419,2.110036 
z"/>
<path fill="#FFCF3E" opacity="1.000000" stroke="none" 
	d="
M54.443878,26.583471 
	C46.858807,22.530931 39.520630,18.590975 32.509109,14.136815 
	C29.166748,12.013538 26.665104,12.334229 23.504967,14.277160 
	C17.173109,18.170143 10.622608,21.707506 3.170460,25.957344 
	C6.973775,16.780451 11.799539,10.623396 19.862045,6.272582 
	C25.854349,3.038923 30.280888,2.177920 35.839382,6.389599 
	C39.785725,9.379750 44.212883,11.950990 48.782505,13.849977 
	C54.920761,16.400837 56.226704,20.642267 54.443878,26.583471 
z"/>
<path fill="#FFCE3C" opacity="1.000000" stroke="none" 
	d="
M40.998428,62.012054 
	C42.165695,60.951538 43.178608,59.641190 44.500309,58.840645 
	C50.750320,55.055058 56.979229,51.209732 63.430435,47.790985 
	C67.038940,45.878708 68.140465,43.400810 67.972572,39.452274 
	C67.664429,32.205601 67.884735,24.936455 68.398483,17.541756 
	C71.969917,23.302670 75.807747,28.364798 76.403961,35.933086 
	C77.239868,46.544106 74.116737,53.230194 64.137642,56.897713 
	C61.372406,57.913990 58.679005,59.505066 56.395073,61.373306 
	C51.513382,65.366486 46.761101,65.864624 41.335121,61.943153 
	C40.958374,61.969669 40.986347,61.997116 40.998428,62.012054 
z"/>
</svg>